<svg xmlns="http://www.w3.org/2000/svg" xmlns:xlink="http://www.w3.org/1999/xlink" width="1280" zoomAndPan="magnify" viewBox="0 0 960 540.000001" height="720" preserveAspectRatio="xMidYMid meet" version="1.0"><defs><g/><clipPath id="bbeafff65f"><path d="M 0.886719 0 L 959.113281 0 L 959.113281 539 L 0.886719 539 Z M 0.886719 0 " clip-rule="nonzero"/></clipPath><clipPath id="2d83306941"><path d="M 835 140 L 869 140 L 869 183 L 835 183 Z M 835 140 " clip-rule="nonzero"/></clipPath><clipPath id="0d550356e4"><path d="M 834.882812 140.265625 L 863.414062 134.074219 L 873.421875 180.160156 L 844.890625 186.355469 Z M 834.882812 140.265625 " clip-rule="nonzero"/></clipPath><clipPath id="5c8b5f7294"><path d="M 834.882812 140.265625 L 863.414062 134.074219 L 873.421875 180.160156 L 844.890625 186.355469 Z M 834.882812 140.265625 " clip-rule="nonzero"/></clipPath></defs><g clip-path="url(#bbeafff65f)"><path fill="#ffffff" d="M 0.886719 0 L 959.113281 0 L 959.113281 539 L 0.886719 539 Z M 0.886719 0 " fill-opacity="1" fill-rule="nonzero"/><path fill="#333333" d="M 0.886719 0 L 959.113281 0 L 959.113281 539 L 0.886719 539 Z M 0.886719 0 " fill-opacity="1" fill-rule="nonzero"/></g><g fill="#ffffff" fill-opacity="1"><g transform="translate(54.787428, 242.966444)"><g><path d="M 7.46875 0 L -2.65625 0 L 23.453125 -45.90625 L 34.53125 -45.90625 L 40.96875 0 L 30.546875 0 L 29.609375 -9.46875 L 12.640625 -9.46875 Z M 16.890625 -17.390625 L 28.609375 -17.390625 L 26.765625 -35.5625 L 26.640625 -35.5625 Z M 16.890625 -17.390625 "/></g></g></g><g fill="#ffffff" fill-opacity="1"><g transform="translate(100.162363, 242.966444)"><g><path d="M 10.984375 -45.90625 L 32.3125 -45.90625 C 36.664062 -45.90625 39.910156 -45.03125 42.046875 -43.28125 C 44.179688 -41.53125 45.25 -39.34375 45.25 -36.71875 C 45.25 -31.332031 42.269531 -27.304688 36.3125 -24.640625 C 40.394531 -23.265625 42.4375 -20.484375 42.4375 -16.296875 C 42.4375 -12.367188 40.785156 -8.671875 37.484375 -5.203125 C 34.179688 -1.734375 29.210938 0 22.578125 0 L 1.25 0 Z M 12.140625 -7.9375 L 24.390625 -7.9375 C 27.347656 -7.9375 29.488281 -8.695312 30.8125 -10.21875 C 32.144531 -11.75 32.8125 -13.503906 32.8125 -15.484375 C 32.8125 -17.148438 32.285156 -18.351562 31.234375 -19.09375 C 30.191406 -19.832031 28.460938 -20.203125 26.046875 -20.203125 L 14.765625 -20.203125 Z M 16.390625 -27.953125 L 27.953125 -27.953125 C 30.734375 -27.953125 32.710938 -28.597656 33.890625 -29.890625 C 35.066406 -31.179688 35.65625 -32.625 35.65625 -34.21875 C 35.65625 -35.382812 35.226562 -36.304688 34.375 -36.984375 C 33.519531 -37.660156 31.722656 -38 28.984375 -38 L 18.546875 -38 Z M 16.390625 -27.953125 "/></g></g></g><g fill="#ffffff" fill-opacity="1"><g transform="translate(145.443617, 242.966444)"><g><path d="M 32.96875 -32.46875 C 33.113281 -32.925781 33.1875 -33.425781 33.1875 -33.96875 C 33.1875 -35.53125 32.46875 -36.785156 31.03125 -37.734375 C 29.601562 -38.679688 27.796875 -39.15625 25.609375 -39.15625 C 22.859375 -39.15625 20.535156 -38.539062 18.640625 -37.3125 C 16.742188 -36.082031 15.796875 -34.53125 15.796875 -32.65625 C 15.796875 -31.914062 16.023438 -31.191406 16.484375 -30.484375 C 16.941406 -29.773438 17.753906 -29.273438 18.921875 -28.984375 L 29.390625 -26.296875 C 33.066406 -25.359375 35.804688 -24.015625 37.609375 -22.265625 C 39.410156 -20.515625 40.3125 -18.285156 40.3125 -15.578125 C 40.3125 -10.378906 38.222656 -6.285156 34.046875 -3.296875 C 29.878906 -0.304688 24.671875 1.1875 18.421875 1.1875 C 13.503906 1.1875 9.5 0.113281 6.40625 -2.03125 C 3.320312 -4.175781 1.78125 -7.066406 1.78125 -10.703125 C 1.78125 -11.785156 1.925781 -12.929688 2.21875 -14.140625 L 11.421875 -14.140625 C 11.296875 -13.640625 11.234375 -13.128906 11.234375 -12.609375 C 11.234375 -10.679688 11.96875 -9.21875 13.4375 -8.21875 C 14.90625 -7.21875 16.960938 -6.71875 19.609375 -6.71875 C 23.046875 -6.71875 25.738281 -7.296875 27.6875 -8.453125 C 29.632812 -9.609375 30.609375 -11.234375 30.609375 -13.328125 C 30.609375 -14.515625 30.25 -15.457031 29.53125 -16.15625 C 28.8125 -16.851562 27.816406 -17.367188 26.546875 -17.703125 L 16.359375 -20.234375 C 12.628906 -21.171875 10.035156 -22.414062 8.578125 -23.96875 C 7.128906 -25.519531 6.40625 -27.585938 6.40625 -30.171875 C 6.40625 -35.242188 8.414062 -39.335938 12.4375 -42.453125 C 16.46875 -45.566406 21.328125 -47.125 27.015625 -47.125 C 31.253906 -47.125 34.914062 -46.128906 38 -44.140625 C 41.082031 -42.148438 42.625 -39.445312 42.625 -36.03125 C 42.625 -34.738281 42.414062 -33.550781 42 -32.46875 Z M 32.96875 -32.46875 "/></g></g></g><g fill="#ffffff" fill-opacity="1"><g transform="translate(188.507882, 242.966444)"><g><path d="M 37.28125 -30.890625 C 37.21875 -36.171875 34.390625 -38.8125 28.796875 -38.8125 C 24.171875 -38.8125 20.441406 -36.484375 17.609375 -31.828125 C 14.773438 -27.179688 13.359375 -22.222656 13.359375 -16.953125 C 13.359375 -13.617188 14.117188 -11.140625 15.640625 -9.515625 C 17.160156 -7.898438 19.296875 -7.09375 22.046875 -7.09375 C 28.066406 -7.09375 32.050781 -9.972656 34 -15.734375 L 43.59375 -15.734375 C 39.800781 -4.429688 32.234375 1.21875 20.890625 1.21875 C 15.390625 1.21875 11.09375 -0.226562 8 -3.125 C 4.914062 -6.019531 3.375 -10.015625 3.375 -15.109375 C 3.375 -23.960938 5.898438 -31.507812 10.953125 -37.75 C 16.015625 -44 22.515625 -47.125 30.453125 -47.125 C 35.609375 -47.125 39.65625 -45.847656 42.59375 -43.296875 C 45.53125 -40.742188 47 -37.59375 47 -33.84375 C 47 -32.695312 46.957031 -31.710938 46.875 -30.890625 Z M 37.28125 -30.890625 "/></g></g></g><g fill="#ffffff" fill-opacity="1"><g transform="translate(234.944475, 242.966444)"><g><path d="M 48.09375 -45.90625 L 38.34375 0 L 28.765625 0 L 33.125 -20.578125 L 15.203125 -20.578125 L 10.828125 0 L 1.25 0 L 10.984375 -45.90625 L 20.578125 -45.90625 L 16.890625 -28.515625 L 34.8125 -28.515625 L 38.5 -45.90625 Z M 48.09375 -45.90625 "/></g></g></g><g fill="#ffffff" fill-opacity="1"><g transform="translate(281.599652, 242.966444)"><g><path d="M 12.609375 -8.3125 L 35.4375 -8.3125 L 33.65625 0 L 1.25 0 L 10.984375 -45.90625 L 20.578125 -45.90625 Z M 12.609375 -8.3125 "/></g></g></g><g fill="#ffffff" fill-opacity="1"><g transform="translate(319.980112, 242.966444)"><g><path d="M 41.53125 -16.046875 C 40.28125 -10.265625 37.8125 -5.941406 34.125 -3.078125 C 30.445312 -0.210938 25.773438 1.21875 20.109375 1.21875 C 14.878906 1.21875 10.863281 0.1875 8.0625 -1.875 C 5.269531 -3.9375 3.875 -6.921875 3.875 -10.828125 C 3.875 -12.304688 4.050781 -13.878906 4.40625 -15.546875 L 10.828125 -45.90625 L 20.640625 -45.90625 L 14.328125 -16.109375 C 14.097656 -15.003906 13.984375 -14.023438 13.984375 -13.171875 C 13.984375 -11.097656 14.570312 -9.535156 15.75 -8.484375 C 16.925781 -7.429688 18.660156 -6.90625 20.953125 -6.90625 C 23.765625 -6.90625 26.101562 -7.625 27.96875 -9.0625 C 29.832031 -10.507812 31.078125 -12.710938 31.703125 -15.671875 L 38.09375 -45.90625 L 47.875 -45.90625 Z M 41.53125 -16.046875 "/></g></g></g><g fill="#ffffff" fill-opacity="1"><g transform="translate(366.260585, 242.966444)"><g><path d="M 32.96875 -32.46875 C 33.113281 -32.925781 33.1875 -33.425781 33.1875 -33.96875 C 33.1875 -35.53125 32.46875 -36.785156 31.03125 -37.734375 C 29.601562 -38.679688 27.796875 -39.15625 25.609375 -39.15625 C 22.859375 -39.15625 20.535156 -38.539062 18.640625 -37.3125 C 16.742188 -36.082031 15.796875 -34.53125 15.796875 -32.65625 C 15.796875 -31.914062 16.023438 -31.191406 16.484375 -30.484375 C 16.941406 -29.773438 17.753906 -29.273438 18.921875 -28.984375 L 29.390625 -26.296875 C 33.066406 -25.359375 35.804688 -24.015625 37.609375 -22.265625 C 39.410156 -20.515625 40.3125 -18.285156 40.3125 -15.578125 C 40.3125 -10.378906 38.222656 -6.285156 34.046875 -3.296875 C 29.878906 -0.304688 24.671875 1.1875 18.421875 1.1875 C 13.503906 1.1875 9.5 0.113281 6.40625 -2.03125 C 3.320312 -4.175781 1.78125 -7.066406 1.78125 -10.703125 C 1.78125 -11.785156 1.925781 -12.929688 2.21875 -14.140625 L 11.421875 -14.140625 C 11.296875 -13.640625 11.234375 -13.128906 11.234375 -12.609375 C 11.234375 -10.679688 11.96875 -9.21875 13.4375 -8.21875 C 14.90625 -7.21875 16.960938 -6.71875 19.609375 -6.71875 C 23.046875 -6.71875 25.738281 -7.296875 27.6875 -8.453125 C 29.632812 -9.609375 30.609375 -11.234375 30.609375 -13.328125 C 30.609375 -14.515625 30.25 -15.457031 29.53125 -16.15625 C 28.8125 -16.851562 27.816406 -17.367188 26.546875 -17.703125 L 16.359375 -20.234375 C 12.628906 -21.171875 10.035156 -22.414062 8.578125 -23.96875 C 7.128906 -25.519531 6.40625 -27.585938 6.40625 -30.171875 C 6.40625 -35.242188 8.414062 -39.335938 12.4375 -42.453125 C 16.46875 -45.566406 21.328125 -47.125 27.015625 -47.125 C 31.253906 -47.125 34.914062 -46.128906 38 -44.140625 C 41.082031 -42.148438 42.625 -39.445312 42.625 -36.03125 C 42.625 -34.738281 42.414062 -33.550781 42 -32.46875 Z M 32.96875 -32.46875 "/></g></g></g><g fill="#ffffff" fill-opacity="1"><g transform="translate(409.324854, 242.966444)"><g><path d="M 32.96875 -32.46875 C 33.113281 -32.925781 33.1875 -33.425781 33.1875 -33.96875 C 33.1875 -35.53125 32.46875 -36.785156 31.03125 -37.734375 C 29.601562 -38.679688 27.796875 -39.15625 25.609375 -39.15625 C 22.859375 -39.15625 20.535156 -38.539062 18.640625 -37.3125 C 16.742188 -36.082031 15.796875 -34.53125 15.796875 -32.65625 C 15.796875 -31.914062 16.023438 -31.191406 16.484375 -30.484375 C 16.941406 -29.773438 17.753906 -29.273438 18.921875 -28.984375 L 29.390625 -26.296875 C 33.066406 -25.359375 35.804688 -24.015625 37.609375 -22.265625 C 39.410156 -20.515625 40.3125 -18.285156 40.3125 -15.578125 C 40.3125 -10.378906 38.222656 -6.285156 34.046875 -3.296875 C 29.878906 -0.304688 24.671875 1.1875 18.421875 1.1875 C 13.503906 1.1875 9.5 0.113281 6.40625 -2.03125 C 3.320312 -4.175781 1.78125 -7.066406 1.78125 -10.703125 C 1.78125 -11.785156 1.925781 -12.929688 2.21875 -14.140625 L 11.421875 -14.140625 C 11.296875 -13.640625 11.234375 -13.128906 11.234375 -12.609375 C 11.234375 -10.679688 11.96875 -9.21875 13.4375 -8.21875 C 14.90625 -7.21875 16.960938 -6.71875 19.609375 -6.71875 C 23.046875 -6.71875 25.738281 -7.296875 27.6875 -8.453125 C 29.632812 -9.609375 30.609375 -11.234375 30.609375 -13.328125 C 30.609375 -14.515625 30.25 -15.457031 29.53125 -16.15625 C 28.8125 -16.851562 27.816406 -17.367188 26.546875 -17.703125 L 16.359375 -20.234375 C 12.628906 -21.171875 10.035156 -22.414062 8.578125 -23.96875 C 7.128906 -25.519531 6.40625 -27.585938 6.40625 -30.171875 C 6.40625 -35.242188 8.414062 -39.335938 12.4375 -42.453125 C 16.46875 -45.566406 21.328125 -47.125 27.015625 -47.125 C 31.253906 -47.125 34.914062 -46.128906 38 -44.140625 C 41.082031 -42.148438 42.625 -39.445312 42.625 -36.03125 C 42.625 -34.738281 42.414062 -33.550781 42 -32.46875 Z M 32.96875 -32.46875 "/></g></g></g><g fill="#ffffff" fill-opacity="1"><g transform="translate(452.389124, 242.966444)"><g><path d="M 10.859375 0 L 1.25 0 L 10.984375 -45.90625 L 31.453125 -45.90625 C 35.234375 -45.90625 38.195312 -44.9375 40.34375 -43 C 42.488281 -41.0625 43.5625 -38.332031 43.5625 -34.8125 C 43.5625 -29.757812 42.023438 -25.453125 38.953125 -21.890625 C 35.878906 -18.328125 31.847656 -16.546875 26.859375 -16.546875 L 14.421875 -16.546875 Z M 16.046875 -24.484375 L 24.796875 -24.484375 C 27.628906 -24.484375 29.832031 -25.207031 31.40625 -26.65625 C 32.988281 -28.101562 33.78125 -30.257812 33.78125 -33.125 C 33.78125 -34.789062 33.285156 -36.019531 32.296875 -36.8125 C 31.316406 -37.601562 29.816406 -38 27.796875 -38 L 18.921875 -38 Z M 16.046875 -24.484375 "/></g></g></g><g fill="#ffffff" fill-opacity="1"><g transform="translate(494.828865, 242.966444)"><g><path d="M 10.671875 0 L 1.25 0 L 10.984375 -45.90625 L 31.140625 -45.90625 C 36.484375 -45.90625 40.335938 -45.054688 42.703125 -43.359375 C 45.066406 -41.660156 46.25 -39.289062 46.25 -36.25 C 46.25 -29.84375 43.21875 -25.140625 37.15625 -22.140625 C 39.46875 -21.015625 40.625 -19.222656 40.625 -16.765625 C 40.625 -15.617188 40.539062 -14.578125 40.375 -13.640625 L 38.90625 -5.40625 C 38.78125 -4.71875 38.71875 -4.101562 38.71875 -3.5625 C 38.71875 -2.269531 39.15625 -1.488281 40.03125 -1.21875 L 39.78125 0 L 29.109375 0 C 29.023438 -0.582031 28.984375 -1.175781 28.984375 -1.78125 C 28.984375 -3.300781 29.328125 -5.851562 30.015625 -9.4375 C 30.492188 -11.945312 30.734375 -13.484375 30.734375 -14.046875 C 30.734375 -15.191406 30.316406 -16.128906 29.484375 -16.859375 C 28.648438 -17.585938 27.273438 -17.953125 25.359375 -17.953125 L 14.453125 -17.953125 Z M 16.109375 -25.703125 L 26.421875 -25.703125 C 30.003906 -25.703125 32.546875 -26.429688 34.046875 -27.890625 C 35.554688 -29.347656 36.3125 -31.257812 36.3125 -33.625 C 36.3125 -35.039062 35.828125 -36.125 34.859375 -36.875 C 33.890625 -37.625 32.378906 -38 30.328125 -38 L 18.734375 -38 Z M 16.109375 -25.703125 "/></g></g></g><g fill="#ffffff" fill-opacity="1"><g transform="translate(540.453622, 242.966444)"><g><path d="M 49.09375 -28.828125 C 49.09375 -20.972656 46.5 -14.003906 41.3125 -7.921875 C 36.125 -1.847656 29.609375 1.1875 21.765625 1.1875 C 16.179688 1.1875 11.6875 -0.460938 8.28125 -3.765625 C 4.882812 -7.066406 3.1875 -11.515625 3.1875 -17.109375 C 3.1875 -24.960938 5.773438 -31.925781 10.953125 -38 C 16.140625 -44.082031 22.660156 -47.125 30.515625 -47.125 C 36.085938 -47.125 40.578125 -45.472656 43.984375 -42.171875 C 47.390625 -38.867188 49.09375 -34.421875 49.09375 -28.828125 Z M 29.015625 -38.90625 C 24.492188 -38.90625 20.695312 -36.804688 17.625 -32.609375 C 14.550781 -28.421875 13.015625 -23.742188 13.015625 -18.578125 C 13.015625 -15.078125 13.929688 -12.253906 15.765625 -10.109375 C 17.597656 -7.972656 20.097656 -6.90625 23.265625 -6.90625 C 27.785156 -6.90625 31.578125 -9 34.640625 -13.1875 C 37.710938 -17.382812 39.25 -22.066406 39.25 -27.234375 C 39.25 -30.722656 38.332031 -33.539062 36.5 -35.6875 C 34.664062 -37.832031 32.171875 -38.90625 29.015625 -38.90625 Z M 29.015625 -38.90625 "/></g></g></g><g fill="#ffffff" fill-opacity="1"><g transform="translate(590.075221, 242.966444)"><g><path d="M 27.515625 -45.90625 L 37.09375 -45.90625 L 30.203125 -13.296875 C 29.160156 -8.347656 27.238281 -4.703125 24.4375 -2.359375 C 21.632812 -0.015625 17.910156 1.15625 13.265625 1.15625 C 8.941406 1.15625 5.6875 0.328125 3.5 -1.328125 C 1.3125 -2.984375 0.21875 -5.46875 0.21875 -8.78125 C 0.21875 -10.394531 0.425781 -12.191406 0.84375 -14.171875 L 1.5 -17.328125 L 10.46875 -17.328125 L 10.28125 -16.390625 C 9.757812 -13.953125 9.5 -12.046875 9.5 -10.671875 C 9.5 -7.953125 10.960938 -6.59375 13.890625 -6.59375 C 15.785156 -6.59375 17.234375 -7.039062 18.234375 -7.9375 C 19.234375 -8.832031 19.992188 -10.515625 20.515625 -12.984375 Z M 27.515625 -45.90625 "/></g></g></g><g fill="#ffffff" fill-opacity="1"><g transform="translate(625.426819, 242.966444)"><g><path d="M 43.03125 -37.78125 L 18.671875 -37.78125 L 16.640625 -28.140625 L 39.03125 -28.140625 L 37.28125 -20.015625 L 14.890625 -20.015625 L 12.359375 -8.125 L 37.8125 -8.125 L 36.09375 0 L 1.25 0 L 10.984375 -45.90625 L 44.75 -45.90625 Z M 43.03125 -37.78125 "/></g></g></g><g fill="#ffffff" fill-opacity="1"><g transform="translate(667.960231, 242.966444)"><g><path d="M 10.828125 0 L 1.25 0 L 10.984375 -45.90625 L 20.578125 -45.90625 L 16.609375 -27.234375 L 38.125 -45.90625 L 50.53125 -45.90625 L 27.796875 -27.109375 L 41.875 0 L 29.515625 0 L 19.609375 -20.140625 L 14.140625 -15.546875 Z M 10.828125 0 "/></g></g></g><g fill="#ffffff" fill-opacity="1"><g transform="translate(713.772329, 242.966444)"><g><path d="M 20.953125 0 L 11.359375 0 L 19.390625 -37.78125 L 5.53125 -37.78125 L 7.25 -45.90625 L 44.59375 -45.90625 L 42.875 -37.78125 L 28.984375 -37.78125 Z M 20.953125 0 "/></g></g></g><g fill="#ffffff" fill-opacity="1"><g transform="translate(54.787428, 345.518662)"><g><path d="M 10.984375 -45.90625 L 30.109375 -45.90625 C 35.304688 -45.90625 39.265625 -44.679688 41.984375 -42.234375 C 44.703125 -39.785156 46.070312 -35.867188 46.09375 -30.484375 C 46.09375 -22.984375 43.910156 -16.023438 39.546875 -9.609375 C 35.179688 -3.203125 29.046875 0 21.140625 0 L 1.25 0 Z M 12.328125 -7.9375 L 21.671875 -7.9375 C 26.671875 -7.9375 30.320312 -10.273438 32.625 -14.953125 C 34.9375 -19.640625 36.101562 -24.515625 36.125 -29.578125 C 36.101562 -32.585938 35.332031 -34.742188 33.8125 -36.046875 C 32.300781 -37.347656 30.347656 -38 27.953125 -38 L 18.734375 -38 Z M 12.328125 -7.9375 "/></g></g></g><g fill="#ffffff" fill-opacity="1"><g transform="translate(101.411379, 345.518662)"><g><path d="M 43.03125 -37.78125 L 18.671875 -37.78125 L 16.640625 -28.140625 L 39.03125 -28.140625 L 37.28125 -20.015625 L 14.890625 -20.015625 L 12.359375 -8.125 L 37.8125 -8.125 L 36.09375 0 L 1.25 0 L 10.984375 -45.90625 L 44.75 -45.90625 Z M 43.03125 -37.78125 "/></g></g></g><g fill="#ffffff" fill-opacity="1"><g transform="translate(143.944807, 345.518662)"><g><path d="M 32.96875 -32.46875 C 33.113281 -32.925781 33.1875 -33.425781 33.1875 -33.96875 C 33.1875 -35.53125 32.46875 -36.785156 31.03125 -37.734375 C 29.601562 -38.679688 27.796875 -39.15625 25.609375 -39.15625 C 22.859375 -39.15625 20.535156 -38.539062 18.640625 -37.3125 C 16.742188 -36.082031 15.796875 -34.53125 15.796875 -32.65625 C 15.796875 -31.914062 16.023438 -31.191406 16.484375 -30.484375 C 16.941406 -29.773438 17.753906 -29.273438 18.921875 -28.984375 L 29.390625 -26.296875 C 33.066406 -25.359375 35.804688 -24.015625 37.609375 -22.265625 C 39.410156 -20.515625 40.3125 -18.285156 40.3125 -15.578125 C 40.3125 -10.378906 38.222656 -6.285156 34.046875 -3.296875 C 29.878906 -0.304688 24.671875 1.1875 18.421875 1.1875 C 13.503906 1.1875 9.5 0.113281 6.40625 -2.03125 C 3.320312 -4.175781 1.78125 -7.066406 1.78125 -10.703125 C 1.78125 -11.785156 1.925781 -12.929688 2.21875 -14.140625 L 11.421875 -14.140625 C 11.296875 -13.640625 11.234375 -13.128906 11.234375 -12.609375 C 11.234375 -10.679688 11.96875 -9.21875 13.4375 -8.21875 C 14.90625 -7.21875 16.960938 -6.71875 19.609375 -6.71875 C 23.046875 -6.71875 25.738281 -7.296875 27.6875 -8.453125 C 29.632812 -9.609375 30.609375 -11.234375 30.609375 -13.328125 C 30.609375 -14.515625 30.25 -15.457031 29.53125 -16.15625 C 28.8125 -16.851562 27.816406 -17.367188 26.546875 -17.703125 L 16.359375 -20.234375 C 12.628906 -21.171875 10.035156 -22.414062 8.578125 -23.96875 C 7.128906 -25.519531 6.40625 -27.585938 6.40625 -30.171875 C 6.40625 -35.242188 8.414062 -39.335938 12.4375 -42.453125 C 16.46875 -45.566406 21.328125 -47.125 27.015625 -47.125 C 31.253906 -47.125 34.914062 -46.128906 38 -44.140625 C 41.082031 -42.148438 42.625 -39.445312 42.625 -36.03125 C 42.625 -34.738281 42.414062 -33.550781 42 -32.46875 Z M 32.96875 -32.46875 "/></g></g></g><g fill="#ffffff" fill-opacity="1"><g transform="translate(187.009066, 345.518662)"><g/></g></g><g fill="#ffffff" fill-opacity="1"><g transform="translate(204.374877, 345.518662)"><g><path d="M 43.03125 -37.78125 L 18.671875 -37.78125 L 16.640625 -28.140625 L 39.03125 -28.140625 L 37.28125 -20.015625 L 14.890625 -20.015625 L 12.359375 -8.125 L 37.8125 -8.125 L 36.09375 0 L 1.25 0 L 10.984375 -45.90625 L 44.75 -45.90625 Z M 43.03125 -37.78125 "/></g></g></g><g fill="#ffffff" fill-opacity="1"><g transform="translate(246.9083, 345.518662)"><g><path d="M 10.671875 0 L 1.25 0 L 10.984375 -45.90625 L 31.140625 -45.90625 C 36.484375 -45.90625 40.335938 -45.054688 42.703125 -43.359375 C 45.066406 -41.660156 46.25 -39.289062 46.25 -36.25 C 46.25 -29.84375 43.21875 -25.140625 37.15625 -22.140625 C 39.46875 -21.015625 40.625 -19.222656 40.625 -16.765625 C 40.625 -15.617188 40.539062 -14.578125 40.375 -13.640625 L 38.90625 -5.40625 C 38.78125 -4.71875 38.71875 -4.101562 38.71875 -3.5625 C 38.71875 -2.269531 39.15625 -1.488281 40.03125 -1.21875 L 39.78125 0 L 29.109375 0 C 29.023438 -0.582031 28.984375 -1.175781 28.984375 -1.78125 C 28.984375 -3.300781 29.328125 -5.851562 30.015625 -9.4375 C 30.492188 -11.945312 30.734375 -13.484375 30.734375 -14.046875 C 30.734375 -15.191406 30.316406 -16.128906 29.484375 -16.859375 C 28.648438 -17.585938 27.273438 -17.953125 25.359375 -17.953125 L 14.453125 -17.953125 Z M 16.109375 -25.703125 L 26.421875 -25.703125 C 30.003906 -25.703125 32.546875 -26.429688 34.046875 -27.890625 C 35.554688 -29.347656 36.3125 -31.257812 36.3125 -33.625 C 36.3125 -35.039062 35.828125 -36.125 34.859375 -36.875 C 33.890625 -37.625 32.378906 -38 30.328125 -38 L 18.734375 -38 Z M 16.109375 -25.703125 "/></g></g></g><g fill="#ffffff" fill-opacity="1"><g transform="translate(292.533035, 345.518662)"><g><path d="M 32.96875 -32.46875 C 33.113281 -32.925781 33.1875 -33.425781 33.1875 -33.96875 C 33.1875 -35.53125 32.46875 -36.785156 31.03125 -37.734375 C 29.601562 -38.679688 27.796875 -39.15625 25.609375 -39.15625 C 22.859375 -39.15625 20.535156 -38.539062 18.640625 -37.3125 C 16.742188 -36.082031 15.796875 -34.53125 15.796875 -32.65625 C 15.796875 -31.914062 16.023438 -31.191406 16.484375 -30.484375 C 16.941406 -29.773438 17.753906 -29.273438 18.921875 -28.984375 L 29.390625 -26.296875 C 33.066406 -25.359375 35.804688 -24.015625 37.609375 -22.265625 C 39.410156 -20.515625 40.3125 -18.285156 40.3125 -15.578125 C 40.3125 -10.378906 38.222656 -6.285156 34.046875 -3.296875 C 29.878906 -0.304688 24.671875 1.1875 18.421875 1.1875 C 13.503906 1.1875 9.5 0.113281 6.40625 -2.03125 C 3.320312 -4.175781 1.78125 -7.066406 1.78125 -10.703125 C 1.78125 -11.785156 1.925781 -12.929688 2.21875 -14.140625 L 11.421875 -14.140625 C 11.296875 -13.640625 11.234375 -13.128906 11.234375 -12.609375 C 11.234375 -10.679688 11.96875 -9.21875 13.4375 -8.21875 C 14.90625 -7.21875 16.960938 -6.71875 19.609375 -6.71875 C 23.046875 -6.71875 25.738281 -7.296875 27.6875 -8.453125 C 29.632812 -9.609375 30.609375 -11.234375 30.609375 -13.328125 C 30.609375 -14.515625 30.25 -15.457031 29.53125 -16.15625 C 28.8125 -16.851562 27.816406 -17.367188 26.546875 -17.703125 L 16.359375 -20.234375 C 12.628906 -21.171875 10.035156 -22.414062 8.578125 -23.96875 C 7.128906 -25.519531 6.40625 -27.585938 6.40625 -30.171875 C 6.40625 -35.242188 8.414062 -39.335938 12.4375 -42.453125 C 16.46875 -45.566406 21.328125 -47.125 27.015625 -47.125 C 31.253906 -47.125 34.914062 -46.128906 38 -44.140625 C 41.082031 -42.148438 42.625 -39.445312 42.625 -36.03125 C 42.625 -34.738281 42.414062 -33.550781 42 -32.46875 Z M 32.96875 -32.46875 "/></g></g></g><g fill="#ffffff" fill-opacity="1"><g transform="translate(335.597304, 345.518662)"><g><path d="M 20.953125 0 L 11.359375 0 L 19.390625 -37.78125 L 5.53125 -37.78125 L 7.25 -45.90625 L 44.59375 -45.90625 L 42.875 -37.78125 L 28.984375 -37.78125 Z M 20.953125 0 "/></g></g></g><g fill="#ffffff" fill-opacity="1"><g transform="translate(375.008205, 345.518662)"><g><path d="M 43.03125 -37.78125 L 18.671875 -37.78125 L 16.640625 -28.140625 L 39.03125 -28.140625 L 37.28125 -20.015625 L 14.890625 -20.015625 L 12.359375 -8.125 L 37.8125 -8.125 L 36.09375 0 L 1.25 0 L 10.984375 -45.90625 L 44.75 -45.90625 Z M 43.03125 -37.78125 "/></g></g></g><g fill="#ffffff" fill-opacity="1"><g transform="translate(417.541639, 345.518662)"><g><path d="M 39.46875 -45.90625 L 48.40625 -45.90625 L 38.65625 0 L 29.078125 0 L 17.296875 -32.75 L 17.171875 -32.75 L 10.21875 0 L 1.25 0 L 10.984375 -45.90625 L 21.109375 -45.90625 L 32.5625 -13.921875 L 32.6875 -13.921875 Z M 39.46875 -45.90625 "/></g></g></g><g fill="#ffffff" fill-opacity="1"><g transform="translate(464.50908, 345.518662)"><g/></g></g><g fill="#ffffff" fill-opacity="1"><g transform="translate(481.874891, 345.518662)"><g><path d="M 32.96875 -32.46875 C 33.113281 -32.925781 33.1875 -33.425781 33.1875 -33.96875 C 33.1875 -35.53125 32.46875 -36.785156 31.03125 -37.734375 C 29.601562 -38.679688 27.796875 -39.15625 25.609375 -39.15625 C 22.859375 -39.15625 20.535156 -38.539062 18.640625 -37.3125 C 16.742188 -36.082031 15.796875 -34.53125 15.796875 -32.65625 C 15.796875 -31.914062 16.023438 -31.191406 16.484375 -30.484375 C 16.941406 -29.773438 17.753906 -29.273438 18.921875 -28.984375 L 29.390625 -26.296875 C 33.066406 -25.359375 35.804688 -24.015625 37.609375 -22.265625 C 39.410156 -20.515625 40.3125 -18.285156 40.3125 -15.578125 C 40.3125 -10.378906 38.222656 -6.285156 34.046875 -3.296875 C 29.878906 -0.304688 24.671875 1.1875 18.421875 1.1875 C 13.503906 1.1875 9.5 0.113281 6.40625 -2.03125 C 3.320312 -4.175781 1.78125 -7.066406 1.78125 -10.703125 C 1.78125 -11.785156 1.925781 -12.929688 2.21875 -14.140625 L 11.421875 -14.140625 C 11.296875 -13.640625 11.234375 -13.128906 11.234375 -12.609375 C 11.234375 -10.679688 11.96875 -9.21875 13.4375 -8.21875 C 14.90625 -7.21875 16.960938 -6.71875 19.609375 -6.71875 C 23.046875 -6.71875 25.738281 -7.296875 27.6875 -8.453125 C 29.632812 -9.609375 30.609375 -11.234375 30.609375 -13.328125 C 30.609375 -14.515625 30.25 -15.457031 29.53125 -16.15625 C 28.8125 -16.851562 27.816406 -17.367188 26.546875 -17.703125 L 16.359375 -20.234375 C 12.628906 -21.171875 10.035156 -22.414062 8.578125 -23.96875 C 7.128906 -25.519531 6.40625 -27.585938 6.40625 -30.171875 C 6.40625 -35.242188 8.414062 -39.335938 12.4375 -42.453125 C 16.46875 -45.566406 21.328125 -47.125 27.015625 -47.125 C 31.253906 -47.125 34.914062 -46.128906 38 -44.140625 C 41.082031 -42.148438 42.625 -39.445312 42.625 -36.03125 C 42.625 -34.738281 42.414062 -33.550781 42 -32.46875 Z M 32.96875 -32.46875 "/></g></g></g><g fill="#ffffff" fill-opacity="1"><g transform="translate(524.93916, 345.518662)"><g><path d="M 43.03125 -37.78125 L 18.671875 -37.78125 L 16.640625 -28.140625 L 39.03125 -28.140625 L 37.28125 -20.015625 L 14.890625 -20.015625 L 12.359375 -8.125 L 37.8125 -8.125 L 36.09375 0 L 1.25 0 L 10.984375 -45.90625 L 44.75 -45.90625 Z M 43.03125 -37.78125 "/></g></g></g><g fill="#ffffff" fill-opacity="1"><g transform="translate(567.472572, 345.518662)"><g><path d="M 45.78125 0 L 36.8125 0 L 43.40625 -31.015625 L 45.09375 -38.375 L 44.84375 -38.375 L 28.109375 0 L 18.703125 0 L 18.484375 -38.375 L 18.265625 -38.375 L 16.796875 -31.015625 L 10.21875 0 L 1.25 0 L 10.984375 -45.90625 L 25.015625 -45.90625 L 25.609375 -9.71875 L 25.796875 -9.71875 L 41.625 -45.90625 L 55.515625 -45.90625 Z M 45.78125 0 "/></g></g></g><g fill="#ffffff" fill-opacity="1"><g transform="translate(621.559364, 345.518662)"><g><path d="M 43.03125 -37.78125 L 18.671875 -37.78125 L 16.640625 -28.140625 L 39.03125 -28.140625 L 37.28125 -20.015625 L 14.890625 -20.015625 L 12.359375 -8.125 L 37.8125 -8.125 L 36.09375 0 L 1.25 0 L 10.984375 -45.90625 L 44.75 -45.90625 Z M 43.03125 -37.78125 "/></g></g></g><g fill="#ffffff" fill-opacity="1"><g transform="translate(664.092776, 345.518662)"><g><path d="M 32.96875 -32.46875 C 33.113281 -32.925781 33.1875 -33.425781 33.1875 -33.96875 C 33.1875 -35.53125 32.46875 -36.785156 31.03125 -37.734375 C 29.601562 -38.679688 27.796875 -39.15625 25.609375 -39.15625 C 22.859375 -39.15625 20.535156 -38.539062 18.640625 -37.3125 C 16.742188 -36.082031 15.796875 -34.53125 15.796875 -32.65625 C 15.796875 -31.914062 16.023438 -31.191406 16.484375 -30.484375 C 16.941406 -29.773438 17.753906 -29.273438 18.921875 -28.984375 L 29.390625 -26.296875 C 33.066406 -25.359375 35.804688 -24.015625 37.609375 -22.265625 C 39.410156 -20.515625 40.3125 -18.285156 40.3125 -15.578125 C 40.3125 -10.378906 38.222656 -6.285156 34.046875 -3.296875 C 29.878906 -0.304688 24.671875 1.1875 18.421875 1.1875 C 13.503906 1.1875 9.5 0.113281 6.40625 -2.03125 C 3.320312 -4.175781 1.78125 -7.066406 1.78125 -10.703125 C 1.78125 -11.785156 1.925781 -12.929688 2.21875 -14.140625 L 11.421875 -14.140625 C 11.296875 -13.640625 11.234375 -13.128906 11.234375 -12.609375 C 11.234375 -10.679688 11.96875 -9.21875 13.4375 -8.21875 C 14.90625 -7.21875 16.960938 -6.71875 19.609375 -6.71875 C 23.046875 -6.71875 25.738281 -7.296875 27.6875 -8.453125 C 29.632812 -9.609375 30.609375 -11.234375 30.609375 -13.328125 C 30.609375 -14.515625 30.25 -15.457031 29.53125 -16.15625 C 28.8125 -16.851562 27.816406 -17.367188 26.546875 -17.703125 L 16.359375 -20.234375 C 12.628906 -21.171875 10.035156 -22.414062 8.578125 -23.96875 C 7.128906 -25.519531 6.40625 -27.585938 6.40625 -30.171875 C 6.40625 -35.242188 8.414062 -39.335938 12.4375 -42.453125 C 16.46875 -45.566406 21.328125 -47.125 27.015625 -47.125 C 31.253906 -47.125 34.914062 -46.128906 38 -44.140625 C 41.082031 -42.148438 42.625 -39.445312 42.625 -36.03125 C 42.625 -34.738281 42.414062 -33.550781 42 -32.46875 Z M 32.96875 -32.46875 "/></g></g></g><g fill="#ffffff" fill-opacity="1"><g transform="translate(707.157046, 345.518662)"><g><path d="M 20.953125 0 L 11.359375 0 L 19.390625 -37.78125 L 5.53125 -37.78125 L 7.25 -45.90625 L 44.59375 -45.90625 L 42.875 -37.78125 L 28.984375 -37.78125 Z M 20.953125 0 "/></g></g></g><g fill="#ffffff" fill-opacity="1"><g transform="translate(746.567947, 345.518662)"><g><path d="M 43.03125 -37.78125 L 18.671875 -37.78125 L 16.640625 -28.140625 L 39.03125 -28.140625 L 37.28125 -20.015625 L 14.890625 -20.015625 L 12.359375 -8.125 L 37.8125 -8.125 L 36.09375 0 L 1.25 0 L 10.984375 -45.90625 L 44.75 -45.90625 Z M 43.03125 -37.78125 "/></g></g></g><g fill="#ffffff" fill-opacity="1"><g transform="translate(789.101358, 345.518662)"><g><path d="M 10.671875 0 L 1.25 0 L 10.984375 -45.90625 L 31.140625 -45.90625 C 36.484375 -45.90625 40.335938 -45.054688 42.703125 -43.359375 C 45.066406 -41.660156 46.25 -39.289062 46.25 -36.25 C 46.25 -29.84375 43.21875 -25.140625 37.15625 -22.140625 C 39.46875 -21.015625 40.625 -19.222656 40.625 -16.765625 C 40.625 -15.617188 40.539062 -14.578125 40.375 -13.640625 L 38.90625 -5.40625 C 38.78125 -4.71875 38.71875 -4.101562 38.71875 -3.5625 C 38.71875 -2.269531 39.15625 -1.488281 40.03125 -1.21875 L 39.78125 0 L 29.109375 0 C 29.023438 -0.582031 28.984375 -1.175781 28.984375 -1.78125 C 28.984375 -3.300781 29.328125 -5.851562 30.015625 -9.4375 C 30.492188 -11.945312 30.734375 -13.484375 30.734375 -14.046875 C 30.734375 -15.191406 30.316406 -16.128906 29.484375 -16.859375 C 28.648438 -17.585938 27.273438 -17.953125 25.359375 -17.953125 L 14.453125 -17.953125 Z M 16.109375 -25.703125 L 26.421875 -25.703125 C 30.003906 -25.703125 32.546875 -26.429688 34.046875 -27.890625 C 35.554688 -29.347656 36.3125 -31.257812 36.3125 -33.625 C 36.3125 -35.039062 35.828125 -36.125 34.859375 -36.875 C 33.890625 -37.625 32.378906 -38 30.328125 -38 L 18.734375 -38 Z M 16.109375 -25.703125 "/></g></g></g><g fill="#ffffff" fill-opacity="1"><g transform="translate(834.726116, 345.518662)"><g><path d="M 32.96875 -32.46875 C 33.113281 -32.925781 33.1875 -33.425781 33.1875 -33.96875 C 33.1875 -35.53125 32.46875 -36.785156 31.03125 -37.734375 C 29.601562 -38.679688 27.796875 -39.15625 25.609375 -39.15625 C 22.859375 -39.15625 20.535156 -38.539062 18.640625 -37.3125 C 16.742188 -36.082031 15.796875 -34.53125 15.796875 -32.65625 C 15.796875 -31.914062 16.023438 -31.191406 16.484375 -30.484375 C 16.941406 -29.773438 17.753906 -29.273438 18.921875 -28.984375 L 29.390625 -26.296875 C 33.066406 -25.359375 35.804688 -24.015625 37.609375 -22.265625 C 39.410156 -20.515625 40.3125 -18.285156 40.3125 -15.578125 C 40.3125 -10.378906 38.222656 -6.285156 34.046875 -3.296875 C 29.878906 -0.304688 24.671875 1.1875 18.421875 1.1875 C 13.503906 1.1875 9.5 0.113281 6.40625 -2.03125 C 3.320312 -4.175781 1.78125 -7.066406 1.78125 -10.703125 C 1.78125 -11.785156 1.925781 -12.929688 2.21875 -14.140625 L 11.421875 -14.140625 C 11.296875 -13.640625 11.234375 -13.128906 11.234375 -12.609375 C 11.234375 -10.679688 11.96875 -9.21875 13.4375 -8.21875 C 14.90625 -7.21875 16.960938 -6.71875 19.609375 -6.71875 C 23.046875 -6.71875 25.738281 -7.296875 27.6875 -8.453125 C 29.632812 -9.609375 30.609375 -11.234375 30.609375 -13.328125 C 30.609375 -14.515625 30.25 -15.457031 29.53125 -16.15625 C 28.8125 -16.851562 27.816406 -17.367188 26.546875 -17.703125 L 16.359375 -20.234375 C 12.628906 -21.171875 10.035156 -22.414062 8.578125 -23.96875 C 7.128906 -25.519531 6.40625 -27.585938 6.40625 -30.171875 C 6.40625 -35.242188 8.414062 -39.335938 12.4375 -42.453125 C 16.46875 -45.566406 21.328125 -47.125 27.015625 -47.125 C 31.253906 -47.125 34.914062 -46.128906 38 -44.140625 C 41.082031 -42.148438 42.625 -39.445312 42.625 -36.03125 C 42.625 -34.738281 42.414062 -33.550781 42 -32.46875 Z M 32.96875 -32.46875 "/></g></g></g><g clip-path="url(#2d83306941)"><g clip-path="url(#0d550356e4)"><g clip-path="url(#5c8b5f7294)"><path fill="#ffffff" d="M 861.851562 182.304688 C 861.71875 182.332031 861.582031 182.335938 861.445312 182.316406 C 861.152344 182.269531 860.886719 182.109375 860.710938 181.863281 L 851.203125 168.597656 L 844.929688 177.714844 C 844.675781 178.078125 844.234375 178.257812 843.796875 178.171875 C 843.363281 178.089844 843.019531 177.75 842.925781 177.320312 L 835.152344 141.503906 C 835.058594 141.074219 835.230469 140.628906 835.589844 140.367188 C 835.945312 140.109375 836.425781 140.089844 836.808594 140.316406 L 868.132812 158.972656 C 868.507812 159.195312 868.71875 159.621094 868.664062 160.058594 C 868.613281 160.496094 868.308594 160.859375 867.890625 160.988281 L 857.042969 164.339844 L 866.808594 177.34375 C 866.984375 177.582031 867.0625 177.878906 867.019531 178.171875 C 866.976562 178.464844 866.820312 178.726562 866.582031 178.902344 L 862.28125 182.109375 C 862.148438 182.203125 862.003906 182.269531 861.851562 182.304688 Z M 861.851562 182.304688 " fill-opacity="1" fill-rule="nonzero"/></g></g></g><g fill="#ffffff" fill-opacity="1"><g transform="translate(681.400747, 426.670009)"><g><path d="M 8.859375 -3.734375 C 8.535156 -3.734375 8.234375 -3.78125 7.953125 -3.875 C 7.679688 -3.976562 7.359375 -4.144531 6.984375 -4.375 C 6.578125 -4.625 6.203125 -4.804688 5.859375 -4.921875 C 5.523438 -5.046875 5.160156 -5.109375 4.765625 -5.109375 C 4.390625 -5.109375 4.035156 -4.984375 3.703125 -4.734375 C 3.378906 -4.484375 3.054688 -4.125 2.734375 -3.65625 L 2.25 -4.78125 C 3.09375 -5.945312 4.050781 -6.53125 5.125 -6.53125 C 5.476562 -6.53125 5.859375 -6.457031 6.265625 -6.3125 C 6.671875 -6.175781 7.125 -5.976562 7.625 -5.71875 C 7.988281 -5.53125 8.296875 -5.390625 8.546875 -5.296875 C 8.796875 -5.203125 9.007812 -5.15625 9.1875 -5.15625 C 9.488281 -5.15625 9.800781 -5.269531 10.125 -5.5 C 10.457031 -5.726562 10.84375 -6.097656 11.28125 -6.609375 L 11.765625 -5.46875 C 11.304688 -4.914062 10.835938 -4.488281 10.359375 -4.1875 C 9.878906 -3.882812 9.378906 -3.734375 8.859375 -3.734375 Z M 8.859375 -3.734375 "/></g></g></g><g fill="#ffffff" fill-opacity="1"><g transform="translate(693.239057, 426.670009)"><g><path d="M 15.671875 -11.703125 C 15.671875 -10.691406 15.441406 -9.8125 14.984375 -9.0625 C 14.535156 -8.3125 13.804688 -7.675781 12.796875 -7.15625 C 13.265625 -6.957031 13.59375 -6.71875 13.78125 -6.4375 C 13.96875 -6.164062 14.0625 -5.796875 14.0625 -5.328125 C 14.0625 -5.171875 14.046875 -5 14.015625 -4.8125 C 13.984375 -4.632812 13.960938 -4.503906 13.953125 -4.421875 L 13.53125 -1.78125 C 13.476562 -1.507812 13.453125 -1.285156 13.453125 -1.109375 C 13.453125 -0.941406 13.484375 -0.796875 13.546875 -0.671875 C 13.617188 -0.546875 13.75 -0.429688 13.9375 -0.328125 L 13.875 0 L 11.453125 0 L 11.4375 -0.421875 C 11.4375 -0.859375 11.488281 -1.414062 11.59375 -2.09375 L 11.890625 -3.671875 C 11.960938 -4.160156 12 -4.484375 12 -4.640625 C 12 -5.140625 11.820312 -5.53125 11.46875 -5.8125 C 11.125 -6.101562 10.609375 -6.25 9.921875 -6.25 L 5.078125 -6.25 L 3.75 0 L 1.78125 0 L 4.890625 -14.5625 L 11.796875 -14.5625 C 13.003906 -14.5625 13.953125 -14.320312 14.640625 -13.84375 C 15.328125 -13.363281 15.671875 -12.648438 15.671875 -11.703125 Z M 10.140625 -7.9375 C 11.304688 -7.9375 12.164062 -8.234375 12.71875 -8.828125 C 13.28125 -9.429688 13.5625 -10.21875 13.5625 -11.1875 C 13.5625 -11.695312 13.410156 -12.101562 13.109375 -12.40625 C 12.804688 -12.71875 12.265625 -12.875 11.484375 -12.875 L 6.484375 -12.875 L 5.4375 -7.9375 Z M 10.140625 -7.9375 "/></g></g></g><g fill="#ffffff" fill-opacity="1"><g transform="translate(707.874775, 426.670009)"><g><path d="M 9.921875 -1.71875 C 8.710938 -0.382812 7.265625 0.28125 5.578125 0.28125 C 4.359375 0.28125 3.40625 -0.0820312 2.71875 -0.8125 C 2.03125 -1.539062 1.6875 -2.539062 1.6875 -3.8125 C 1.6875 -5.019531 1.957031 -6.171875 2.5 -7.265625 C 3.050781 -8.359375 3.804688 -9.238281 4.765625 -9.90625 C 5.722656 -10.570312 6.785156 -10.90625 7.953125 -10.90625 C 9.191406 -10.90625 10.148438 -10.539062 10.828125 -9.8125 C 11.503906 -9.082031 11.84375 -8.0625 11.84375 -6.75 C 11.84375 -5.84375 11.671875 -4.945312 11.328125 -4.0625 C 10.984375 -3.175781 10.515625 -2.394531 9.921875 -1.71875 Z M 8.921875 -2.984375 C 9.265625 -3.503906 9.53125 -4.128906 9.71875 -4.859375 C 9.90625 -5.597656 10 -6.179688 10 -6.609375 C 10 -7.515625 9.796875 -8.203125 9.390625 -8.671875 C 8.984375 -9.140625 8.378906 -9.375 7.578125 -9.375 C 6.753906 -9.375 6.035156 -9.085938 5.421875 -8.515625 C 4.816406 -7.953125 4.351562 -7.253906 4.03125 -6.421875 C 3.707031 -5.585938 3.546875 -4.789062 3.546875 -4.03125 C 3.546875 -3.144531 3.75 -2.457031 4.15625 -1.96875 C 4.5625 -1.488281 5.144531 -1.25 5.90625 -1.25 C 7.1875 -1.25 8.191406 -1.828125 8.921875 -2.984375 Z M 8.921875 -2.984375 "/></g></g></g><g fill="#ffffff" fill-opacity="1"><g transform="translate(719.145491, 426.670009)"><g><path d="M 5.09375 -9.1875 C 5.71875 -9.832031 6.296875 -10.28125 6.828125 -10.53125 C 7.367188 -10.78125 7.945312 -10.90625 8.5625 -10.90625 C 9.53125 -10.90625 10.28125 -10.679688 10.8125 -10.234375 C 11.351562 -9.796875 11.625 -9.15625 11.625 -8.3125 C 11.625 -7.945312 11.582031 -7.585938 11.5 -7.234375 L 9.953125 0 L 8.171875 0 L 9.65625 -6.921875 C 9.738281 -7.242188 9.78125 -7.570312 9.78125 -7.90625 C 9.78125 -8.363281 9.644531 -8.710938 9.375 -8.953125 C 9.101562 -9.191406 8.660156 -9.3125 8.046875 -9.3125 C 7.128906 -9.3125 6.34375 -9.003906 5.6875 -8.390625 C 5.03125 -7.785156 4.570312 -6.890625 4.3125 -5.703125 L 3.109375 0 L 1.3125 0 L 4.421875 -14.5625 L 6.203125 -14.5625 L 5.046875 -9.1875 Z M 5.09375 -9.1875 "/></g></g></g><g fill="#ffffff" fill-opacity="1"><g transform="translate(730.416207, 426.670009)"><g><path d="M 4.015625 -12.53125 L 4.46875 -14.5625 L 6.25 -14.5625 L 5.796875 -12.53125 Z M 1.359375 0 L 3.609375 -10.609375 L 5.390625 -10.609375 L 3.140625 0 Z M 1.359375 0 "/></g></g></g><g fill="#ffffff" fill-opacity="1"><g transform="translate(734.916387, 426.670009)"><g><path d="M 7.46875 -10.609375 L 7.15625 -9.125 L 5.453125 -9.125 L 4.015625 -2.40625 C 3.972656 -2.238281 3.953125 -2.097656 3.953125 -1.984375 C 3.953125 -1.597656 4.226562 -1.40625 4.78125 -1.40625 L 5.515625 -1.40625 L 5.21875 0 C 4.414062 0.09375 3.953125 0.140625 3.828125 0.140625 C 2.648438 0.140625 2.0625 -0.316406 2.0625 -1.234375 C 2.0625 -1.515625 2.101562 -1.851562 2.1875 -2.25 L 3.671875 -9.125 L 2.234375 -9.125 L 2.53125 -10.609375 L 3.96875 -10.609375 L 4.609375 -13.5625 L 6.390625 -13.5625 L 5.765625 -10.609375 Z M 7.46875 -10.609375 "/></g></g></g><g fill="#ffffff" fill-opacity="1"><g transform="translate(740.551745, 426.670009)"><g/></g></g><g fill="#ffffff" fill-opacity="1"><g transform="translate(746.187103, 426.670009)"><g><path d="M 14.359375 -10.296875 L 12.515625 -10.296875 C 12.554688 -10.421875 12.578125 -10.632812 12.578125 -10.9375 C 12.578125 -11.6875 12.296875 -12.257812 11.734375 -12.65625 C 11.179688 -13.0625 10.441406 -13.265625 9.515625 -13.265625 C 8.609375 -13.265625 7.859375 -13.101562 7.265625 -12.78125 C 6.679688 -12.46875 6.253906 -12.078125 5.984375 -11.609375 C 5.722656 -11.140625 5.59375 -10.691406 5.59375 -10.265625 C 5.59375 -10.046875 5.625 -9.851562 5.6875 -9.6875 C 5.757812 -9.519531 5.925781 -9.351562 6.1875 -9.1875 C 6.445312 -9.019531 6.84375 -8.878906 7.375 -8.765625 L 10.640625 -7.984375 C 11.753906 -7.710938 12.515625 -7.335938 12.921875 -6.859375 C 13.328125 -6.378906 13.53125 -5.726562 13.53125 -4.90625 C 13.53125 -3.757812 13.210938 -2.785156 12.578125 -1.984375 C 11.953125 -1.191406 11.117188 -0.597656 10.078125 -0.203125 C 9.035156 0.191406 7.894531 0.390625 6.65625 0.390625 C 5.0625 0.390625 3.859375 0.046875 3.046875 -0.640625 C 2.234375 -1.335938 1.828125 -2.226562 1.828125 -3.3125 C 1.828125 -3.65625 1.878906 -4.117188 1.984375 -4.703125 L 3.828125 -4.703125 C 3.773438 -4.472656 3.75 -4.195312 3.75 -3.875 C 3.75 -3.050781 4.046875 -2.414062 4.640625 -1.96875 C 5.234375 -1.519531 6.066406 -1.296875 7.140625 -1.296875 C 8.453125 -1.296875 9.515625 -1.554688 10.328125 -2.078125 C 11.140625 -2.609375 11.546875 -3.375 11.546875 -4.375 C 11.546875 -4.90625 11.320312 -5.304688 10.875 -5.578125 C 10.4375 -5.859375 9.664062 -6.132812 8.5625 -6.40625 L 5.875 -7.0625 C 5.144531 -7.238281 4.582031 -7.550781 4.1875 -8 C 3.800781 -8.457031 3.609375 -9.007812 3.609375 -9.65625 C 3.609375 -10.5625 3.859375 -11.421875 4.359375 -12.234375 C 4.859375 -13.046875 5.570312 -13.703125 6.5 -14.203125 C 7.425781 -14.703125 8.488281 -14.953125 9.6875 -14.953125 C 12.863281 -14.953125 14.453125 -13.765625 14.453125 -11.390625 C 14.453125 -11.179688 14.421875 -10.816406 14.359375 -10.296875 Z M 14.359375 -10.296875 "/></g></g></g><g fill="#ffffff" fill-opacity="1"><g transform="translate(759.707909, 426.670009)"><g><path d="M 5.09375 -9.1875 C 5.71875 -9.832031 6.296875 -10.28125 6.828125 -10.53125 C 7.367188 -10.78125 7.945312 -10.90625 8.5625 -10.90625 C 9.53125 -10.90625 10.28125 -10.679688 10.8125 -10.234375 C 11.351562 -9.796875 11.625 -9.15625 11.625 -8.3125 C 11.625 -7.945312 11.582031 -7.585938 11.5 -7.234375 L 9.953125 0 L 8.171875 0 L 9.65625 -6.921875 C 9.738281 -7.242188 9.78125 -7.570312 9.78125 -7.90625 C 9.78125 -8.363281 9.644531 -8.710938 9.375 -8.953125 C 9.101562 -9.191406 8.660156 -9.3125 8.046875 -9.3125 C 7.128906 -9.3125 6.34375 -9.003906 5.6875 -8.390625 C 5.03125 -7.785156 4.570312 -6.890625 4.3125 -5.703125 L 3.109375 0 L 1.3125 0 L 4.421875 -14.5625 L 6.203125 -14.5625 L 5.046875 -9.1875 Z M 5.09375 -9.1875 "/></g></g></g><g fill="#ffffff" fill-opacity="1"><g transform="translate(770.978625, 426.670009)"><g><path d="M 11.171875 -7.546875 L 10.046875 -2.1875 C 9.972656 -1.90625 9.9375 -1.722656 9.9375 -1.640625 C 9.9375 -1.359375 10.097656 -1.21875 10.421875 -1.21875 C 10.609375 -1.21875 10.8125 -1.242188 11.03125 -1.296875 L 10.75 0 C 10.382812 0.132812 10.003906 0.203125 9.609375 0.203125 C 8.640625 0.203125 8.15625 -0.207031 8.15625 -1.03125 C 8.15625 -1.101562 8.15625 -1.164062 8.15625 -1.21875 C 8.164062 -1.269531 8.175781 -1.335938 8.1875 -1.421875 C 7.507812 -0.804688 6.832031 -0.363281 6.15625 -0.09375 C 5.488281 0.164062 4.769531 0.296875 4 0.296875 C 3.132812 0.296875 2.457031 0.0859375 1.96875 -0.328125 C 1.476562 -0.753906 1.234375 -1.332031 1.234375 -2.0625 C 1.234375 -2.46875 1.335938 -2.960938 1.546875 -3.546875 C 1.753906 -4.128906 2.171875 -4.664062 2.796875 -5.15625 C 3.429688 -5.65625 4.296875 -5.972656 5.390625 -6.109375 L 8.125 -6.421875 C 8.6875 -6.492188 9.054688 -6.675781 9.234375 -6.96875 C 9.421875 -7.269531 9.515625 -7.644531 9.515625 -8.09375 C 9.515625 -8.988281 8.789062 -9.4375 7.34375 -9.4375 C 6.625 -9.4375 6.023438 -9.28125 5.546875 -8.96875 C 5.078125 -8.65625 4.71875 -8.125 4.46875 -7.375 L 2.8125 -7.375 C 3.101562 -8.582031 3.675781 -9.472656 4.53125 -10.046875 C 5.394531 -10.617188 6.53125 -10.90625 7.9375 -10.90625 C 8.894531 -10.90625 9.691406 -10.710938 10.328125 -10.328125 C 10.972656 -9.941406 11.300781 -9.375 11.3125 -8.625 C 11.3125 -8.363281 11.265625 -8.003906 11.171875 -7.546875 Z M 4.71875 -1.171875 C 5.257812 -1.171875 5.804688 -1.28125 6.359375 -1.5 C 6.921875 -1.71875 7.394531 -2.007812 7.78125 -2.375 C 8.175781 -2.738281 8.421875 -3.128906 8.515625 -3.546875 L 8.9375 -5.421875 C 8.75 -5.265625 8.390625 -5.132812 7.859375 -5.03125 C 7.335938 -4.9375 6.570312 -4.828125 5.5625 -4.703125 C 3.957031 -4.472656 3.15625 -3.722656 3.15625 -2.453125 C 3.15625 -1.597656 3.675781 -1.171875 4.71875 -1.171875 Z M 4.71875 -1.171875 "/></g></g></g><g fill="#ffffff" fill-opacity="1"><g transform="translate(782.24934, 426.670009)"><g><path d="M 4.671875 -6.140625 L 3.34375 0 L 1.5625 0 L 3.8125 -10.609375 L 5.5 -10.609375 L 5.125 -8.84375 L 5.171875 -8.84375 C 5.703125 -9.519531 6.234375 -10.03125 6.765625 -10.375 C 7.304688 -10.726562 7.910156 -10.90625 8.578125 -10.90625 C 8.765625 -10.90625 8.921875 -10.882812 9.046875 -10.84375 L 8.640625 -9 L 7.953125 -9 C 7.546875 -9 7.117188 -8.898438 6.671875 -8.703125 C 6.222656 -8.515625 5.8125 -8.207031 5.4375 -7.78125 C 5.070312 -7.351562 4.816406 -6.804688 4.671875 -6.140625 Z M 4.671875 -6.140625 "/></g></g></g><g fill="#ffffff" fill-opacity="1"><g transform="translate(788.999611, 426.670009)"><g><path d="M 14.625 -10.90625 C 15.394531 -10.90625 16.03125 -10.691406 16.53125 -10.265625 C 17.03125 -9.847656 17.28125 -9.238281 17.28125 -8.4375 C 17.28125 -8.113281 17.234375 -7.710938 17.140625 -7.234375 L 15.59375 0 L 13.8125 0 L 15.265625 -6.828125 C 15.347656 -7.265625 15.390625 -7.601562 15.390625 -7.84375 C 15.390625 -8.820312 14.867188 -9.3125 13.828125 -9.3125 C 13.359375 -9.3125 12.898438 -9.175781 12.453125 -8.90625 C 12.015625 -8.632812 11.644531 -8.28125 11.34375 -7.84375 C 11.039062 -7.414062 10.835938 -6.957031 10.734375 -6.46875 L 9.34375 0 L 7.5625 0 L 9.109375 -7.21875 C 9.160156 -7.476562 9.1875 -7.742188 9.1875 -8.015625 C 9.1875 -8.378906 9.085938 -8.6875 8.890625 -8.9375 C 8.691406 -9.1875 8.359375 -9.3125 7.890625 -9.3125 C 7.066406 -9.3125 6.328125 -9.003906 5.671875 -8.390625 C 5.023438 -7.785156 4.570312 -6.894531 4.3125 -5.71875 L 3.109375 0 L 1.3125 0 L 3.5625 -10.609375 L 5.25 -10.609375 L 4.921875 -9.109375 L 4.96875 -9.109375 C 6.039062 -10.304688 7.238281 -10.90625 8.5625 -10.90625 C 9.882812 -10.90625 10.703125 -10.332031 11.015625 -9.1875 C 11.796875 -9.90625 12.4375 -10.367188 12.9375 -10.578125 C 13.4375 -10.796875 14 -10.90625 14.625 -10.90625 Z M 14.625 -10.90625 "/></g></g></g><g fill="#ffffff" fill-opacity="1"><g transform="translate(805.885421, 426.670009)"><g><path d="M 11.171875 -7.546875 L 10.046875 -2.1875 C 9.972656 -1.90625 9.9375 -1.722656 9.9375 -1.640625 C 9.9375 -1.359375 10.097656 -1.21875 10.421875 -1.21875 C 10.609375 -1.21875 10.8125 -1.242188 11.03125 -1.296875 L 10.75 0 C 10.382812 0.132812 10.003906 0.203125 9.609375 0.203125 C 8.640625 0.203125 8.15625 -0.207031 8.15625 -1.03125 C 8.15625 -1.101562 8.15625 -1.164062 8.15625 -1.21875 C 8.164062 -1.269531 8.175781 -1.335938 8.1875 -1.421875 C 7.507812 -0.804688 6.832031 -0.363281 6.15625 -0.09375 C 5.488281 0.164062 4.769531 0.296875 4 0.296875 C 3.132812 0.296875 2.457031 0.0859375 1.96875 -0.328125 C 1.476562 -0.753906 1.234375 -1.332031 1.234375 -2.0625 C 1.234375 -2.46875 1.335938 -2.960938 1.546875 -3.546875 C 1.753906 -4.128906 2.171875 -4.664062 2.796875 -5.15625 C 3.429688 -5.65625 4.296875 -5.972656 5.390625 -6.109375 L 8.125 -6.421875 C 8.6875 -6.492188 9.054688 -6.675781 9.234375 -6.96875 C 9.421875 -7.269531 9.515625 -7.644531 9.515625 -8.09375 C 9.515625 -8.988281 8.789062 -9.4375 7.34375 -9.4375 C 6.625 -9.4375 6.023438 -9.28125 5.546875 -8.96875 C 5.078125 -8.65625 4.71875 -8.125 4.46875 -7.375 L 2.8125 -7.375 C 3.101562 -8.582031 3.675781 -9.472656 4.53125 -10.046875 C 5.394531 -10.617188 6.53125 -10.90625 7.9375 -10.90625 C 8.894531 -10.90625 9.691406 -10.710938 10.328125 -10.328125 C 10.972656 -9.941406 11.300781 -9.375 11.3125 -8.625 C 11.3125 -8.363281 11.265625 -8.003906 11.171875 -7.546875 Z M 4.71875 -1.171875 C 5.257812 -1.171875 5.804688 -1.28125 6.359375 -1.5 C 6.921875 -1.71875 7.394531 -2.007812 7.78125 -2.375 C 8.175781 -2.738281 8.421875 -3.128906 8.515625 -3.546875 L 8.9375 -5.421875 C 8.75 -5.265625 8.390625 -5.132812 7.859375 -5.03125 C 7.335938 -4.9375 6.570312 -4.828125 5.5625 -4.703125 C 3.957031 -4.472656 3.15625 -3.722656 3.15625 -2.453125 C 3.15625 -1.597656 3.675781 -1.171875 4.71875 -1.171875 Z M 4.71875 -1.171875 "/></g></g></g><g fill="#ffffff" fill-opacity="1"><g transform="translate(817.156136, 426.670009)"><g/></g></g><g fill="#ffffff" fill-opacity="1"><g transform="translate(822.791494, 426.670009)"><g><path d="M 14.421875 -11.75 C 14.421875 -10.863281 14.175781 -10.078125 13.6875 -9.390625 C 13.195312 -8.703125 12.550781 -8.1875 11.75 -7.84375 C 13.070312 -7.34375 13.734375 -6.46875 13.734375 -5.21875 C 13.734375 -4.351562 13.484375 -3.515625 12.984375 -2.703125 C 12.492188 -1.898438 11.800781 -1.25 10.90625 -0.75 C 10.019531 -0.25 9 0 7.84375 0 L 1.5 0 L 4.609375 -14.5625 L 11.09375 -14.5625 C 12.082031 -14.5625 12.882812 -14.3125 13.5 -13.8125 C 14.113281 -13.3125 14.421875 -12.625 14.421875 -11.75 Z M 8.84375 -8.390625 C 10.113281 -8.390625 11.023438 -8.664062 11.578125 -9.21875 C 12.128906 -9.78125 12.40625 -10.476562 12.40625 -11.3125 C 12.40625 -12.351562 11.5625 -12.875 9.875 -12.875 L 6.203125 -12.875 L 5.25 -8.390625 Z M 7.984375 -1.6875 C 8.773438 -1.6875 9.453125 -1.832031 10.015625 -2.125 C 10.585938 -2.425781 11.015625 -2.820312 11.296875 -3.3125 C 11.578125 -3.8125 11.71875 -4.363281 11.71875 -4.96875 C 11.71875 -5.519531 11.488281 -5.960938 11.03125 -6.296875 C 10.570312 -6.628906 9.863281 -6.796875 8.90625 -6.796875 L 4.90625 -6.796875 L 3.828125 -1.6875 Z M 7.984375 -1.6875 "/></g></g></g><g fill="#ffffff" fill-opacity="1"><g transform="translate(836.3123, 426.670009)"><g><path d="M 5.09375 -9.1875 C 5.71875 -9.832031 6.296875 -10.28125 6.828125 -10.53125 C 7.367188 -10.78125 7.945312 -10.90625 8.5625 -10.90625 C 9.53125 -10.90625 10.28125 -10.679688 10.8125 -10.234375 C 11.351562 -9.796875 11.625 -9.15625 11.625 -8.3125 C 11.625 -7.945312 11.582031 -7.585938 11.5 -7.234375 L 9.953125 0 L 8.171875 0 L 9.65625 -6.921875 C 9.738281 -7.242188 9.78125 -7.570312 9.78125 -7.90625 C 9.78125 -8.363281 9.644531 -8.710938 9.375 -8.953125 C 9.101562 -9.191406 8.660156 -9.3125 8.046875 -9.3125 C 7.128906 -9.3125 6.34375 -9.003906 5.6875 -8.390625 C 5.03125 -7.785156 4.570312 -6.890625 4.3125 -5.703125 L 3.109375 0 L 1.3125 0 L 4.421875 -14.5625 L 6.203125 -14.5625 L 5.046875 -9.1875 Z M 5.09375 -9.1875 "/></g></g></g><g fill="#ffffff" fill-opacity="1"><g transform="translate(847.583016, 426.670009)"><g><path d="M 3.8125 -2.765625 C 3.8125 -1.742188 4.375 -1.234375 5.5 -1.234375 C 6.414062 -1.234375 7.195312 -1.5625 7.84375 -2.21875 C 8.5 -2.875 8.929688 -3.722656 9.140625 -4.765625 L 10.390625 -10.609375 L 12.171875 -10.609375 L 9.921875 0 L 8.234375 0 L 8.5625 -1.546875 L 8.53125 -1.578125 C 7.96875 -0.898438 7.398438 -0.414062 6.828125 -0.125 C 6.265625 0.15625 5.578125 0.296875 4.765625 0.296875 C 3.910156 0.296875 3.21875 0.09375 2.6875 -0.3125 C 2.164062 -0.726562 1.90625 -1.320312 1.90625 -2.09375 C 1.90625 -2.4375 1.953125 -2.800781 2.046875 -3.1875 L 3.625 -10.609375 L 5.421875 -10.609375 L 3.921875 -3.59375 C 3.847656 -3.226562 3.8125 -2.953125 3.8125 -2.765625 Z M 3.8125 -2.765625 "/></g></g></g><g fill="#ffffff" fill-opacity="1"><g transform="translate(858.853732, 426.670009)"><g><path d="M 10.671875 -7.578125 L 8.9375 -7.578125 C 8.957031 -7.640625 8.972656 -7.710938 8.984375 -7.796875 C 8.992188 -7.890625 9 -7.972656 9 -8.046875 C 9 -8.453125 8.816406 -8.773438 8.453125 -9.015625 C 8.085938 -9.253906 7.546875 -9.375 6.828125 -9.375 C 6.160156 -9.375 5.578125 -9.21875 5.078125 -8.90625 C 4.585938 -8.59375 4.34375 -8.164062 4.34375 -7.625 C 4.34375 -7.3125 4.453125 -7.082031 4.671875 -6.9375 C 4.898438 -6.789062 5.320312 -6.632812 5.9375 -6.46875 L 7.34375 -6.109375 C 8.332031 -5.859375 9.050781 -5.5625 9.5 -5.21875 C 9.957031 -4.882812 10.1875 -4.429688 10.1875 -3.859375 C 10.1875 -3.054688 9.953125 -2.335938 9.484375 -1.703125 C 9.015625 -1.078125 8.394531 -0.585938 7.625 -0.234375 C 6.863281 0.117188 6.0625 0.296875 5.21875 0.296875 C 3.90625 0.296875 2.921875 0.078125 2.265625 -0.359375 C 1.609375 -0.796875 1.28125 -1.488281 1.28125 -2.4375 C 1.28125 -2.71875 1.3125 -3.039062 1.375 -3.40625 L 3.109375 -3.40625 C 3.078125 -3.113281 3.0625 -2.914062 3.0625 -2.8125 C 3.0625 -2.300781 3.265625 -1.910156 3.671875 -1.640625 C 4.078125 -1.367188 4.671875 -1.234375 5.453125 -1.234375 C 6.316406 -1.234375 7.003906 -1.425781 7.515625 -1.8125 C 8.035156 -2.195312 8.296875 -2.660156 8.296875 -3.203125 C 8.296875 -3.515625 8.15625 -3.757812 7.875 -3.9375 C 7.601562 -4.113281 7.117188 -4.289062 6.421875 -4.46875 L 4.515625 -4.953125 C 3.816406 -5.128906 3.3125 -5.378906 3 -5.703125 C 2.6875 -6.035156 2.53125 -6.472656 2.53125 -7.015625 C 2.53125 -7.734375 2.738281 -8.390625 3.15625 -8.984375 C 3.582031 -9.578125 4.160156 -10.046875 4.890625 -10.390625 C 5.628906 -10.734375 6.441406 -10.90625 7.328125 -10.90625 C 8.390625 -10.90625 9.222656 -10.675781 9.828125 -10.21875 C 10.429688 -9.769531 10.734375 -9.09375 10.734375 -8.1875 C 10.734375 -8.09375 10.722656 -7.988281 10.703125 -7.875 C 10.691406 -7.757812 10.679688 -7.660156 10.671875 -7.578125 Z M 10.671875 -7.578125 "/></g></g></g><g fill="#ffffff" fill-opacity="1"><g transform="translate(868.98927, 426.670009)"><g><path d="M 11.171875 -7.546875 L 10.046875 -2.1875 C 9.972656 -1.90625 9.9375 -1.722656 9.9375 -1.640625 C 9.9375 -1.359375 10.097656 -1.21875 10.421875 -1.21875 C 10.609375 -1.21875 10.8125 -1.242188 11.03125 -1.296875 L 10.75 0 C 10.382812 0.132812 10.003906 0.203125 9.609375 0.203125 C 8.640625 0.203125 8.15625 -0.207031 8.15625 -1.03125 C 8.15625 -1.101562 8.15625 -1.164062 8.15625 -1.21875 C 8.164062 -1.269531 8.175781 -1.335938 8.1875 -1.421875 C 7.507812 -0.804688 6.832031 -0.363281 6.15625 -0.09375 C 5.488281 0.164062 4.769531 0.296875 4 0.296875 C 3.132812 0.296875 2.457031 0.0859375 1.96875 -0.328125 C 1.476562 -0.753906 1.234375 -1.332031 1.234375 -2.0625 C 1.234375 -2.46875 1.335938 -2.960938 1.546875 -3.546875 C 1.753906 -4.128906 2.171875 -4.664062 2.796875 -5.15625 C 3.429688 -5.65625 4.296875 -5.972656 5.390625 -6.109375 L 8.125 -6.421875 C 8.6875 -6.492188 9.054688 -6.675781 9.234375 -6.96875 C 9.421875 -7.269531 9.515625 -7.644531 9.515625 -8.09375 C 9.515625 -8.988281 8.789062 -9.4375 7.34375 -9.4375 C 6.625 -9.4375 6.023438 -9.28125 5.546875 -8.96875 C 5.078125 -8.65625 4.71875 -8.125 4.46875 -7.375 L 2.8125 -7.375 C 3.101562 -8.582031 3.675781 -9.472656 4.53125 -10.046875 C 5.394531 -10.617188 6.53125 -10.90625 7.9375 -10.90625 C 8.894531 -10.90625 9.691406 -10.710938 10.328125 -10.328125 C 10.972656 -9.941406 11.300781 -9.375 11.3125 -8.625 C 11.3125 -8.363281 11.265625 -8.003906 11.171875 -7.546875 Z M 4.71875 -1.171875 C 5.257812 -1.171875 5.804688 -1.28125 6.359375 -1.5 C 6.921875 -1.71875 7.394531 -2.007812 7.78125 -2.375 C 8.175781 -2.738281 8.421875 -3.128906 8.515625 -3.546875 L 8.9375 -5.421875 C 8.75 -5.265625 8.390625 -5.132812 7.859375 -5.03125 C 7.335938 -4.9375 6.570312 -4.828125 5.5625 -4.703125 C 3.957031 -4.472656 3.15625 -3.722656 3.15625 -2.453125 C 3.15625 -1.597656 3.675781 -1.171875 4.71875 -1.171875 Z M 4.71875 -1.171875 "/></g></g></g><g fill="#ffffff" fill-opacity="1"><g transform="translate(880.259974, 426.670009)"><g><path d="M 1.359375 0 L 4.46875 -14.5625 L 6.25 -14.5625 L 3.140625 0 Z M 1.359375 0 "/></g></g></g></svg>